<?xml version="1.0" encoding="UTF-8" standalone="no"?>
<!-- Created with Inkscape (http://www.inkscape.org/) -->

<svg
   xmlns:dc="http://purl.org/dc/elements/1.1/"
   xmlns:cc="http://creativecommons.org/ns#"
   xmlns:rdf="http://www.w3.org/1999/02/22-rdf-syntax-ns#"
   xmlns:svg="http://www.w3.org/2000/svg"
   xmlns="http://www.w3.org/2000/svg"
   xmlns:sodipodi="http://sodipodi.sourceforge.net/DTD/sodipodi-0.dtd"
   xmlns:inkscape="http://www.inkscape.org/namespaces/inkscape"
   width="744.09448819"
   height="1052.3622047"
   id="svg3899"
   version="1.1"
   inkscape:version="0.48.2 r9819"
   sodipodi:docname="New document 4">
  <defs
     id="defs3901" />
  <sodipodi:namedview
     id="base"
     pagecolor="#ffffff"
     bordercolor="#666666"
     borderopacity="1.0"
     inkscape:pageopacity="0.0"
     inkscape:pageshadow="2"
     inkscape:zoom="0.35"
     inkscape:cx="375"
     inkscape:cy="520"
     inkscape:document-units="px"
     inkscape:current-layer="layer1"
     showgrid="false"
     inkscape:window-width="499"
     inkscape:window-height="476"
     inkscape:window-x="1984"
     inkscape:window-y="64"
     inkscape:window-maximized="0" />
  <metadata
     id="metadata3904">
    <rdf:RDF>
      <cc:Work
         rdf:about="">
        <dc:format>image/svg+xml</dc:format>
        <dc:type
           rdf:resource="http://purl.org/dc/dcmitype/StillImage" />
        <dc:title></dc:title>
      </cc:Work>
    </rdf:RDF>
  </metadata>
  <g
     inkscape:label="Layer 1"
     inkscape:groupmode="layer"
     id="layer1">
    <g
       id="g3844"
       inkscape:export-filename="C:\Windows8AppFactor\Content\05 - Ways to Build Apps\Scirra Demo\Demos\Assets\Images\BlockTile.png"
       inkscape:export-xdpi="43.718964"
       inkscape:export-ydpi="43.718964"
       transform="translate(-262.35394,420.2964)">
      <rect
         y="46.190483"
         x="571.47864"
         height="131.7506"
         width="131.7506"
         id="rect3841"
         style="fill:#552200;fill-opacity:1;stroke:none" />
      <path
         inkscape:connector-curvature="0"
         id="rect3831"
         d="m 625.25,154.53483 c -2.42661,0.12534 -4.73108,0.77685 -6.5,2.25 -4.62472,3.85146 -5.42729,11.71788 -4.125,17.59375 0.309,1.39417 1.14467,2.51335 2.15625,3.5625 l 22.5625,0 c 0.3199,-1.35825 0.6483,-2.72 0.875,-4.09375 0.65074,-3.94332 3.00148,-8.1586 1.53125,-11.875 -1.14841,-2.90291 -4.25469,-4.95766 -7.21875,-5.9375 -2.81017,-0.92897 -6.16133,-1.66115 -9.28125,-1.5 z"
         style="fill:#784421;fill-opacity:1;stroke:none" />
      <path
         inkscape:connector-curvature="0"
         id="rect3805"
         d="m 698.35423,93.84375 c -2.58044,0.07741 -5.09953,0.488252 -7.46875,1.4375 -4.86461,1.949045 -9.89706,5.81594 -11.375,10.84375 -1.44971,4.93178 -0.5307,11.97441 3.625,15 3.70194,2.69522 9.11207,-1.2156 13.6875,-1.03125 2.11147,0.0851 4.26058,0.75655 6.40625,1.5 l 0,-27.5625 c -1.62962,-0.160629 -3.2675,-0.235724 -4.875,-0.1875 z"
         style="fill:#784421;fill-opacity:1;stroke:none" />
      <path
         sodipodi:nodetypes="aaaaaaaaaaaa"
         inkscape:connector-curvature="0"
         id="path3807"
         d="m 592.91119,78.995326 c 4.48976,-3.94262 9.80225,-8.895085 15.76617,-8.529237 5.48803,0.336656 8.51847,7.111499 13.44001,9.563084 6.14609,3.061575 14.55348,1.594011 19.64309,6.203082 2.43172,2.202126 5.1181,6.009366 3.87693,9.04616 -2.57251,6.294195 -12.13957,6.770525 -18.86771,7.753855 -5.1404,0.75128 -10.38877,-2.4366 -15.5077,-1.55077 -3.56951,0.6177 -6.82894,6.69369 -9.82155,4.65231 -4.13778,-2.82255 4.68659,-11.563601 1.03385,-14.990783 -1.90155,-1.784129 -5.1745,1.415867 -7.75385,1.033847 -3.08931,-0.457547 -7.72836,-0.858357 -8.52924,-3.876926 -0.98112,-3.697913 3.84522,-6.780179 6.72,-9.304622 z"
         style="fill:#784421;stroke:none" />
      <path
         sodipodi:nodetypes="aaaaaaaaaa"
         inkscape:connector-curvature="0"
         id="path3809"
         d="m 610.4866,141.54306 c 3.47755,2.72268 7.9946,4.86319 12.40616,4.65231 4.1181,-0.19685 7.32707,-3.79741 11.11385,-5.42769 5.40883,-2.32861 15.20226,-0.4686 16.54155,-6.20308 0.85946,-3.67998 -4.21828,-6.93638 -7.75385,-8.27078 -4.21074,-1.58923 -9.23725,2.90253 -13.44001,1.29231 -4.04262,-1.54887 -4.54688,-8.69288 -8.7877,-9.56308 -3.70188,-0.75961 -7.5091,2.14721 -10.33847,4.65231 -2.86517,2.5368 -6.05328,5.99626 -5.94462,9.82154 0.10381,3.65474 3.32425,6.79223 6.20309,9.04616 z"
         style="fill:#784421;stroke:none" />
      <path
         sodipodi:nodetypes="aaaaaaaa"
         inkscape:connector-curvature="0"
         id="path3811"
         d="m 662.95432,62.453775 c 7.26258,1.193453 14.55638,4.50359 19.90156,9.563084 4.2845,4.055506 11.69282,10.528167 8.52923,15.507704 -3.61098,5.683736 -13.44354,-1.774981 -20.16001,-1.292309 -3.33701,0.23981 -6.64402,3.114805 -9.82155,2.067694 -4.92655,-1.623475 -7.96175,-7.020161 -10.33846,-11.630778 -1.94392,-3.77104 -5.2793,-8.932779 -2.84308,-12.406163 2.84109,-4.050625 9.85013,-2.611516 14.73231,-1.809232 z"
         style="fill:#784421;stroke:none" />
      <path
         sodipodi:nodetypes="aaaaaa"
         inkscape:connector-curvature="0"
         id="path3813"
         d="m 675.87741,125.25997 c 7.06428,3.02478 19.07233,8.09166 17.05847,15.50771 -1.31514,4.84303 -9.95148,4.62739 -14.73231,3.10154 -4.35617,-1.39031 -6.83667,-6.23055 -9.30463,-10.08001 -1.81346,-2.8286 -5.83918,-6.57714 -3.87692,-9.30462 2.11859,-2.94477 7.52055,-0.65253 10.85539,0.77538 z"
         style="fill:#784421;stroke:none" />
      <path
         sodipodi:nodetypes="aaaaaaaa"
         inkscape:connector-curvature="0"
         id="path3815"
         d="m 582.31427,153.4323 c -1.32426,1.5138 -4.48759,2.41364 -4.13539,4.39385 0.60723,3.41405 5.93802,5.48322 9.30462,4.65231 3.29625,-0.81355 4.3548,-5.27084 5.94462,-8.27077 1.28907,-2.43242 3.43572,-5.06551 2.84308,-7.75385 -0.57705,-2.61763 -3.02882,-6.03762 -5.68616,-5.68616 -3.25232,0.43015 -3.05199,5.82599 -4.91077,8.52924 -1.00632,1.46351 -2.19059,2.79858 -3.36,4.13538 z"
         style="fill:#784421;stroke:none" />
      <path
         sodipodi:nodetypes="aaaaaaaaaa"
         inkscape:connector-curvature="0"
         id="path3817"
         d="m 586.44965,50.822998 c -2.50557,1.278482 -5.99713,2.653403 -6.46154,5.427696 -0.58057,3.468259 2.05142,8.062988 5.4277,9.046161 2.95941,0.861782 5.25525,-3.497111 8.27077,-4.135388 3.62824,-0.767966 7.88435,2.340153 11.11386,0.516923 2.04775,-1.156063 4.31761,-4.055351 3.36,-6.203081 -0.90201,-2.023029 -4.25631,-1.342907 -6.46154,-1.55077 -1.80329,-0.169976 -3.95613,1.314499 -5.4277,0.258461 -1.52873,-1.097052 0.0786,-4.48662 -1.55077,-5.427696 -2.46082,-1.421282 -5.73949,0.776086 -8.27078,2.067694 z"
         style="fill:#784421;stroke:none" />
      <path
         sodipodi:nodetypes="aaaaaaaa"
         inkscape:connector-curvature="0"
         id="path3819"
         d="m 664.50509,153.69077 c 4.66791,1.22269 10.06931,-2.22933 14.47386,-0.25846 3.011,1.34731 7.4949,4.36273 6.46154,7.49539 -1.71544,5.2004 -10.68804,2.39058 -16.02463,3.61846 -5.51906,1.26986 -11.82852,7.01699 -16.54155,3.87693 -2.61674,-1.7434 -2.11315,-6.211 -1.55077,-9.30462 0.6766,-3.72193 2.02833,-8.85674 5.68616,-9.82155 2.80033,-0.73863 4.6938,3.66001 7.49539,4.39385 z"
         style="fill:#784421;stroke:none" />
      <path
         style="fill:#784421;stroke:none"
         d="m 654.57075,120.62445 c 1.80497,0.88734 3.49287,3.70998 5.31445,2.85727 3.14056,-1.47016 3.75952,-7.15485 2.08558,-10.19168 -1.63896,-2.97337 -6.21835,-2.84222 -9.52753,-3.60143 -2.68318,-0.61559 -5.78214,-2.0076 -8.22549,-0.73936 -2.37909,1.23488 -5.04798,4.48827 -4.02072,6.96409 1.25725,3.03017 6.41738,1.44012 9.50961,2.53591 1.6741,0.59325 3.27019,1.39163 4.8641,2.1752 z"
         id="path3821"
         inkscape:connector-curvature="0"
         sodipodi:nodetypes="aaaaaaaa" />
      <path
         inkscape:connector-curvature="0"
         id="path3825"
         d="m 571.47864,94.03125 0,27.5625 c 4.05297,1.4043 8.07748,3.04687 11.6875,1.34375 7.5101,-3.54307 15.4001,-13.63126 12.65625,-21.46875 -1.9192,-5.481969 -10.56896,-5.136293 -16.28125,-6.1875 -2.61988,-0.482125 -5.3322,-0.980879 -8.0625,-1.25 z"
         style="fill:#784421;stroke:none" />
      <path
         inkscape:connector-curvature="0"
         id="path3836"
         d="m 616.78125,46.190483 c 1.55242,1.61008 3.51087,3.04607 4.5625,4.96875 3.28172,5.99995 0.47233,16.59087 6.71875,19.375 3.24452,1.44614 7.8476,-1.16571 9.8125,-4.125 2.33514,-3.5169 -0.41598,-8.4865 0,-12.6875 0.25239,-2.54891 0.88026,-5.03256 1.46875,-7.53125 l -22.5625,0 z"
         style="fill:#784421;fill-opacity:1;stroke:none" />
    </g>
  </g>
</svg>
