<?xml version="1.0" encoding="UTF-8" standalone="no"?>
<!-- Created with Inkscape (http://www.inkscape.org/) -->

<svg
   xmlns:dc="http://purl.org/dc/elements/1.1/"
   xmlns:cc="http://creativecommons.org/ns#"
   xmlns:rdf="http://www.w3.org/1999/02/22-rdf-syntax-ns#"
   xmlns:svg="http://www.w3.org/2000/svg"
   xmlns="http://www.w3.org/2000/svg"
   xmlns:sodipodi="http://sodipodi.sourceforge.net/DTD/sodipodi-0.dtd"
   xmlns:inkscape="http://www.inkscape.org/namespaces/inkscape"
   width="744.09448819"
   height="1052.3622047"
   id="svg2"
   version="1.1"
   inkscape:version="0.48.2 r9819"
   sodipodi:docname="8Guy.svg">
  <defs
     id="defs4" />
  <sodipodi:namedview
     id="base"
     pagecolor="#ffffff"
     bordercolor="#666666"
     borderopacity="1.0"
     inkscape:pageopacity="0.0"
     inkscape:pageshadow="2"
     inkscape:zoom="0.4836306"
     inkscape:cx="1060.113"
     inkscape:cy="689.17137"
     inkscape:document-units="px"
     inkscape:current-layer="layer1"
     showgrid="false"
     inkscape:window-width="1920"
     inkscape:window-height="1003"
     inkscape:window-x="1911"
     inkscape:window-y="-9"
     inkscape:window-maximized="1" />
  <metadata
     id="metadata7">
    <rdf:RDF>
      <cc:Work
         rdf:about="">
        <dc:format>image/svg+xml</dc:format>
        <dc:type
           rdf:resource="http://purl.org/dc/dcmitype/StillImage" />
        <dc:title></dc:title>
      </cc:Work>
    </rdf:RDF>
  </metadata>
  <g
     inkscape:label="Layer 1"
     inkscape:groupmode="layer"
     id="layer1">
    <g
       id="g3859"
       transform="translate(-57.907844,225.47632)">
      <g
         inkscape:export-ydpi="24.950657"
         inkscape:export-xdpi="24.950657"
         inkscape:export-filename="C:\Windows8AppFactor\Content\05 - Ways to Build Apps\Scirra Demo\Demos\Assets\Images\8Guy.png"
         id="text2989"
         style="font-size:82.20404816px;font-style:normal;font-weight:normal;line-height:125%;letter-spacing:0px;word-spacing:0px;fill:#000000;fill-opacity:1;stroke:none;font-family:Sans">
        <path
           id="path2994"
           style="font-size:295.93457031px;font-variant:normal;font-stretch:normal;text-align:start;line-height:125%;writing-mode:lr-tb;text-anchor:start;font-family:Bauhaus 93;-inkscape-font-specification:'Bauhaus 93,'"
           d="m 478.4346,298.07863 c 8.18815,8.4774 13.82362,16.28036 16.90642,23.40889 3.0825,7.12872 4.62382,15.79867 4.62398,26.00988 -1.6e-4,19.55561 -6.6712,35.88402 -20.01316,48.98526 -13.34222,13.10127 -29.98371,19.6519 -49.9245,19.6519 -20.03731,0 -36.72696,-6.55063 -50.06901,-19.6519 -13.34213,-13.10124 -20.01317,-29.42965 -20.01316,-48.98526 -1e-5,-9.92222 1.61356,-18.59217 4.84073,-26.00988 3.22713,-7.41753 8.79035,-15.22049 16.68967,-23.40889 -7.12866,-9.44049 -10.69297,-19.94077 -10.69295,-31.50084 -2e-5,-16.66543 5.53911,-30.41693 16.61742,-41.25455 11.07823,-10.83725 25.19098,-16.25597 42.3383,-16.25618 17.33981,2.1e-4 31.57298,5.39484 42.69954,16.18393 11.12631,10.78945 16.68953,24.61321 16.68967,41.4713 -1.4e-4,11.36741 -3.56446,21.81951 -10.69295,31.35634 z m -49.12976,-46.67327 c -4.33506,1.6e-4 -8.06795,1.58965 -11.1987,4.76848 -3.13088,3.17913 -4.69629,6.88795 -4.69622,11.12644 -7e-5,4.91312 1.54125,8.9591 4.62397,12.13794 3.08258,3.17912 7.03222,4.76861 11.84895,4.76848 4.33489,1.3e-4 8.06778,-1.63753 11.19869,-4.91297 3.13072,-3.27519 4.69613,-7.1285 4.69623,-11.55995 -10e-5,-4.62383 -1.58959,-8.50122 -4.76848,-11.63219 -3.17907,-3.13066 -7.08055,-4.69607 -11.70444,-4.69623 z m 0.4335,73.55014 c -6.55072,9e-5 -12.1621,2.28799 -16.83417,6.86372 -4.67221,4.57589 -7.00828,10.09094 -7.00822,16.54517 -6e-5,7.03236 2.26376,12.88457 6.79147,17.55667 4.52757,4.67218 10.21121,7.00825 17.05092,7.00821 6.83954,4e-5 12.52317,-2.33603 17.05091,-7.00821 4.52754,-4.6721 6.79136,-10.52431 6.79147,-17.55667 -1.1e-4,-6.3579 -2.36026,-11.84887 -7.08046,-16.47292 -4.72041,-4.62389 -10.30771,-6.93588 -16.76192,-6.93597 z"
           inkscape:connector-curvature="0" />
      </g>
      <g
         inkscape:export-ydpi="24.950657"
         inkscape:export-xdpi="24.950657"
         inkscape:export-filename="C:\Windows8AppFactor\Content\05 - Ways to Build Apps\Scirra Demo\Demos\Assets\Images\8Guy.png"
         transform="translate(0.5001061,0)"
         id="g3790">
        <path
           sodipodi:type="arc"
           style="fill:#ffffff;fill-opacity:1;stroke:#000000;stroke-width:3.76257157;stroke-miterlimit:4;stroke-dasharray:none"
           id="path2998"
           sodipodi:cx="397.72327"
           sodipodi:cy="217.23149"
           sodipodi:rx="18.760532"
           sodipodi:ry="30.355179"
           d="m 416.4838,217.23149 c 0,16.7647 -8.39938,30.35518 -18.76053,30.35518 -10.36116,0 -18.76054,-13.59048 -18.76054,-30.35518 0,-16.7647 8.39938,-30.35518 18.76054,-30.35518 10.36115,0 18.76053,13.59048 18.76053,30.35518 z"
           transform="matrix(0.79732704,0,0,0.79732704,93.891608,37.773439)" />
        <path
           inkscape:connector-curvature="0"
           style="fill:#5555ff;fill-opacity:1;stroke:none"
           d="m 411.25,210.09375 c -5.12228,0 -9.28125,6.71197 -9.28125,15 0,0.98206 0.0658,1.9464 0.1875,2.875 2.46397,3.66237 5.5666,5.71875 8.84375,5.71875 3.47478,0 6.78497,-2.28538 9.3125,-6.375 0.0359,-0.058 0.0582,-0.12877 0.0937,-0.1875 0.0567,-0.66386 0.125,-1.34216 0.125,-2.03125 0,-8.28803 -4.15897,-15 -9.28125,-15 z"
           id="path3770" />
        <path
           transform="matrix(0.79732704,0,0,0.79732704,130.78732,37.773439)"
           d="m 416.4838,217.23149 c 0,16.7647 -8.39938,30.35518 -18.76053,30.35518 -10.36116,0 -18.76054,-13.59048 -18.76054,-30.35518 0,-16.7647 8.39938,-30.35518 18.76054,-30.35518 10.36115,0 18.76053,13.59048 18.76053,30.35518 z"
           sodipodi:ry="30.355179"
           sodipodi:rx="18.760532"
           sodipodi:cy="217.23149"
           sodipodi:cx="397.72327"
           id="path3782"
           style="fill:#ffffff;fill-opacity:1;stroke:#000000;stroke-width:3.76257157;stroke-miterlimit:4;stroke-dasharray:none"
           sodipodi:type="arc" />
        <path
           id="path3784"
           d="m 448.14571,210.09375 c -5.12228,0 -9.28125,6.71197 -9.28125,15 0,0.98206 0.0658,1.9464 0.1875,2.875 2.46397,3.66237 5.5666,5.71875 8.84375,5.71875 3.47478,0 6.78497,-2.28538 9.3125,-6.375 0.0359,-0.058 0.0582,-0.12877 0.0937,-0.1875 0.0567,-0.66386 0.125,-1.34216 0.125,-2.03125 0,-8.28803 -4.15897,-15 -9.28125,-15 z"
           style="fill:#5555ff;fill-opacity:1;stroke:none"
           inkscape:connector-curvature="0" />
      </g>
      <path
         inkscape:export-ydpi="24.950657"
         inkscape:export-xdpi="24.950657"
         inkscape:export-filename="C:\Windows8AppFactor\Content\05 - Ways to Build Apps\Scirra Demo\Demos\Assets\Images\8Guy.png"
         sodipodi:nodetypes="cssscsc"
         inkscape:connector-curvature="0"
         id="path3796"
         d="m 405.64755,293.07952 c -0.0718,0.50811 -0.10407,1.01485 -0.10407,1.53547 0,8.9821 10.9356,16.2664 24.42028,16.2664 13.48467,0 24.40293,-7.2843 24.40293,-16.2664 0,-0.52065 -0.0322,-1.02733 -0.10407,-1.53547 -1.15903,8.2637 -11.58978,9.98384 -24.29886,9.98384 -12.70915,0 -23.15727,-1.72008 -24.31621,-9.98384 z"
         style="fill:#ff0000;fill-opacity:1;stroke:none" />
    </g>
  </g>
</svg>
