<?xml version="1.0" encoding="UTF-8" standalone="no"?>
<!-- Created with Inkscape (http://www.inkscape.org/) -->

<svg
   xmlns:dc="http://purl.org/dc/elements/1.1/"
   xmlns:cc="http://creativecommons.org/ns#"
   xmlns:rdf="http://www.w3.org/1999/02/22-rdf-syntax-ns#"
   xmlns:svg="http://www.w3.org/2000/svg"
   xmlns="http://www.w3.org/2000/svg"
   xmlns:sodipodi="http://sodipodi.sourceforge.net/DTD/sodipodi-0.dtd"
   xmlns:inkscape="http://www.inkscape.org/namespaces/inkscape"
   width="744.09448819"
   height="1052.3622047"
   id="svg2"
   version="1.1"
   inkscape:version="0.48.4 r9939"
   sodipodi:docname="bart line colors.svg">
  <defs
     id="defs4" />
  <sodipodi:namedview
     id="base"
     pagecolor="#ffffff"
     bordercolor="#666666"
     borderopacity="1.0"
     inkscape:pageopacity="0.0"
     inkscape:pageshadow="2"
     inkscape:zoom="0.83874317"
     inkscape:cx="835.05991"
     inkscape:cy="726.37499"
     inkscape:document-units="px"
     inkscape:current-layer="layer1"
     showgrid="false"
     inkscape:window-width="1920"
     inkscape:window-height="1017"
     inkscape:window-x="-8"
     inkscape:window-y="-8"
     inkscape:window-maximized="1"
     showguides="true"
     inkscape:guide-bbox="true" />
  <metadata
     id="metadata7">
    <rdf:RDF>
      <cc:Work
         rdf:about="">
        <dc:format>image/svg+xml</dc:format>
        <dc:type
           rdf:resource="http://purl.org/dc/dcmitype/StillImage" />
        <dc:title></dc:title>
      </cc:Work>
    </rdf:RDF>
  </metadata>
  <g
     inkscape:label="Layer 1"
     inkscape:groupmode="layer"
     id="layer1">
    <rect
       style="fill:#ff9933;fill-opacity:1;stroke:none"
       id="rect2985"
       width="100.00687"
       height="100.00687"
       x="159.27022"
       y="60.627243"
       rx="17.501205"
       ry="17.501205"
       inkscape:export-filename="C:\Users\Bret\SkyDrive\BuildCamp\Bootstrap\Learning\BootStrapPlayGround\BootStrapPlayGround\images\orange.png"
       inkscape:export-xdpi="10.8"
       inkscape:export-ydpi="10.8" />
    <text
       xml:space="preserve"
       style="font-size:22px;font-style:normal;font-weight:normal;line-height:125%;letter-spacing:0px;word-spacing:0px;fill:#000000;fill-opacity:1;stroke:none;font-family:Sans"
       x="209.20383"
       y="206.00763"
       id="text3755"
       sodipodi:linespacing="125%"><tspan
         sodipodi:role="line"
         id="tspan3757"
         x="209.20383"
         y="206.00763"
         style="text-align:center;text-anchor:middle">Orange</tspan><tspan
         sodipodi:role="line"
         x="209.20383"
         y="233.50763"
         style="text-align:center;text-anchor:middle"
         id="tspan3765">#ff9933</tspan></text>
    <rect
       ry="17.501205"
       rx="17.501205"
       y="60.627243"
       x="321.31842"
       height="100.00687"
       width="100.00687"
       id="rect3767"
       style="fill:#ffff33;fill-opacity:1;stroke:none"
       inkscape:export-filename="C:\Users\Bret\SkyDrive\BuildCamp\Bootstrap\Learning\BootStrapPlayGround\BootStrapPlayGround\images\yellow.png"
       inkscape:export-xdpi="10.8"
       inkscape:export-ydpi="10.8" />
    <text
       sodipodi:linespacing="125%"
       id="text3769"
       y="206.00763"
       x="371.25201"
       style="font-size:22px;font-style:normal;font-weight:normal;line-height:125%;letter-spacing:0px;word-spacing:0px;fill:#000000;fill-opacity:1;stroke:none;font-family:Sans"
       xml:space="preserve"><tspan
         style="text-align:center;text-anchor:middle"
         y="206.00763"
         x="371.25201"
         id="tspan3771"
         sodipodi:role="line">Yellow</tspan><tspan
         id="tspan3773"
         style="text-align:center;text-anchor:middle"
         y="233.50763"
         x="371.25201"
         sodipodi:role="line">#ffff33</tspan></text>
    <rect
       style="fill:#0099cc;fill-opacity:1;stroke:none"
       id="rect3789"
       width="100.00687"
       height="100.00687"
       x="650.04474"
       y="60.627243"
       rx="17.501205"
       ry="17.501205"
       inkscape:export-filename="C:\Users\Bret\SkyDrive\BuildCamp\Bootstrap\Learning\BootStrapPlayGround\BootStrapPlayGround\images\blue.png"
       inkscape:export-xdpi="10.8"
       inkscape:export-ydpi="10.8" />
    <text
       xml:space="preserve"
       style="font-size:22px;font-style:normal;font-weight:normal;line-height:125%;letter-spacing:0px;word-spacing:0px;fill:#000000;fill-opacity:1;stroke:none;font-family:Sans"
       x="699.97839"
       y="206.00763"
       id="text3791"
       sodipodi:linespacing="125%"><tspan
         sodipodi:role="line"
         id="tspan3793"
         x="699.97839"
         y="206.00763"
         style="text-align:center;text-anchor:middle">Blue</tspan><tspan
         sodipodi:role="line"
         x="699.97839"
         y="233.50763"
         style="text-align:center;text-anchor:middle"
         id="tspan3795">#0099cc</tspan></text>
    <rect
       ry="17.501205"
       rx="17.501205"
       y="60.627243"
       x="-9.259903"
       height="100.00687"
       width="100.00687"
       id="rect3797"
       style="fill:#ff0000;fill-opacity:1;stroke:none"
       inkscape:export-filename="C:\Users\Bret\SkyDrive\BuildCamp\Bootstrap\Learning\BootStrapPlayGround\BootStrapPlayGround\images\red.png"
       inkscape:export-xdpi="10.799262"
       inkscape:export-ydpi="10.799262" />
    <text
       sodipodi:linespacing="125%"
       id="text3799"
       y="206.00763"
       x="40.673706"
       style="font-size:22px;font-style:normal;font-weight:normal;line-height:125%;letter-spacing:0px;word-spacing:0px;fill:#000000;fill-opacity:1;stroke:none;font-family:Sans"
       xml:space="preserve"><tspan
         style="text-align:center;text-anchor:middle"
         y="206.00763"
         x="40.673706"
         id="tspan3801"
         sodipodi:role="line">Red</tspan><tspan
         id="tspan3803"
         style="text-align:center;text-anchor:middle"
         y="233.50763"
         x="40.673706"
         sodipodi:role="line">#ff0000</tspan></text>
    <rect
       ry="17.501205"
       rx="17.501205"
       y="60.627243"
       x="489.84851"
       height="100.00687"
       width="100.00687"
       id="rect3805"
       style="fill:#009900;fill-opacity:1;stroke:none"
       inkscape:export-filename="C:\Users\Bret\SkyDrive\BuildCamp\Bootstrap\Learning\BootStrapPlayGround\BootStrapPlayGround\images\green.png"
       inkscape:export-xdpi="10.8"
       inkscape:export-ydpi="10.8" />
    <text
       sodipodi:linespacing="125%"
       id="text3807"
       y="206.00763"
       x="539.78217"
       style="font-size:22px;font-style:normal;font-weight:normal;line-height:125%;letter-spacing:0px;word-spacing:0px;fill:#000000;fill-opacity:1;stroke:none;font-family:Sans"
       xml:space="preserve"><tspan
         style="text-align:center;text-anchor:middle"
         y="206.00763"
         x="539.78217"
         id="tspan3809"
         sodipodi:role="line">Green</tspan><tspan
         id="tspan3811"
         style="text-align:center;text-anchor:middle"
         y="233.50763"
         x="539.78217"
         sodipodi:role="line">#009900</tspan></text>
    <g
       id="g3849"
       transform="translate(-239.64428,-144.26347)"
       inkscape:export-filename="C:\Users\Bret\SkyDrive\BuildCamp\Bootstrap\Learning\BootStrapPlayGround\BootStrapPlayGround\images\bike.png"
       inkscape:export-xdpi="7.7875657"
       inkscape:export-ydpi="7.7875657">
      <rect
         y="421.12463"
         x="244.48601"
         height="138.68259"
         width="138.68259"
         id="rect3847"
         style="fill:none;stroke:none" />
      <path
         inkscape:connector-curvature="0"
         id="path3831"
         d="m 327.28548,431.85198 c -2.85694,5.2e-4 -5.77037,1.24225 -8.02078,3.80535 -4.35382,4.95872 -3.06675,12.29961 2.73919,15.63149 4.68376,2.68786 10.10271,1.55536 13.59759,-2.83762 2.117,-2.661 2.55344,-7.53669 0.95135,-10.66155 -2.00113,-3.90318 -5.59414,-5.9384 -9.26735,-5.93767 z m -16.22198,16.25477 c -0.9506,0.0118 -1.89465,0.18614 -2.80482,0.52488 -1.68215,0.62597 -25.55388,24.16098 -26.70308,26.32584 -1.65456,3.11678 -0.47319,8.58931 2.32913,10.77636 0.46867,0.36575 5.99016,3.5223 12.26898,7.02022 l 11.41607,6.36414 0,11.6129 c 0.002,6.38963 0.24577,12.48436 0.54129,13.54836 0.29454,1.06052 1.2549,2.53787 2.13232,3.28049 l 0.0165,0 c 3.40027,2.84959 8.34109,0.9412 9.39856,-3.64133 0.66428,-2.87867 0.63648,-30.47717 -0.0327,-32.88681 -0.72674,-2.61652 -3.11185,-4.57191 -9.80863,-8.02077 -3.11164,-1.60248 -6.01311,-3.14604 -6.44616,-3.4281 -0.63494,-0.41355 0.48865,-1.78273 5.77366,-7.08583 3.6042,-3.61653 6.81758,-6.57735 7.15143,-6.57735 0.33387,0 2.19603,2.48855 4.13342,5.5276 2.24832,3.52685 4.0795,5.81998 5.06834,6.33134 1.28169,0.66277 3.55397,0.77155 13.12192,0.63968 l 11.56369,-0.16399 1.26298,-1.47622 c 1.59772,-1.85886 1.59761,-3.06179 0,-4.92072 l -1.26298,-1.47622 -9.95626,-0.16399 -9.93985,-0.16399 -6.1837,-9.69381 c -5.11468,-8.02664 -6.55535,-9.91931 -8.38165,-10.98961 -1.47124,-0.86222 -3.07392,-1.28402 -4.65826,-1.26298 z m -38.398,44.90975 c -15.48468,0 -28.03169,12.54699 -28.03169,28.03169 0,15.48467 12.54701,28.03168 28.03169,28.03168 15.48469,0 28.04808,-12.54701 28.04808,-28.03168 0,-15.4847 -12.56339,-28.03169 -28.04808,-28.03169 z m 82.30722,0 c -15.4847,0 -28.03169,12.54699 -28.03169,28.03169 0,15.48467 12.54699,28.03168 28.03169,28.03168 15.48467,0 28.04808,-12.54701 28.04808,-28.03168 0,-15.4847 -12.56341,-28.03169 -28.04808,-28.03169 z m -82.30722,5.5604 c 12.40585,0 22.47128,10.06544 22.47128,22.47129 0,12.40585 -10.06543,22.45487 -22.47128,22.45487 -12.40586,0 -22.45487,-10.04902 -22.45487,-22.45487 0,-12.40585 10.04901,-22.47129 22.45487,-22.47129 z m 82.30722,0 c 12.40585,0 22.47126,10.06544 22.47126,22.47129 0,12.40585 -10.06541,22.45487 -22.47126,22.45487 -12.40588,0 -22.45489,-10.04902 -22.45489,-22.45487 0,-12.40585 10.04901,-22.47129 22.45489,-22.47129 z"
         style="fill:#000000" />
    </g>
  </g>
</svg>
